<?xml version="1.0" encoding="utf-8"?>
<!-- Generator: Adobe Illustrator 16.0.0, SVG Export Plug-In . SVG Version: 6.00 Build 0)  -->
<!DOCTYPE svg PUBLIC "-//W3C//DTD SVG 1.1//EN" "http://www.w3.org/Graphics/SVG/1.1/DTD/svg11.dtd">
<svg version="1.1" id="Layer_1" xmlns="http://www.w3.org/2000/svg" xmlns:xlink="http://www.w3.org/1999/xlink" x="0px" y="0px"
	 width="170px" height="50px" viewBox="0 0 170 50" enable-background="new 0 0 170 50" xml:space="preserve">
<g>
	<g opacity="0.4">
		<title>wifi</title>
		<desc>Created with Sketch.</desc>
	</g>
	<text transform="matrix(1 0 0 1 7.3398 31.8574)" fill="#FFFFFF" font-family="'Tunga'" font-size="34.4464">Cruz Tech</text>
	<path fill="none" stroke="#020202" stroke-width="2" stroke-miterlimit="10" d="M131.188,9.608"/>
	<path fill="none" stroke="#1D1D1D" stroke-width="2" stroke-miterlimit="10" d="M131.076,13.167"/>
</g>
<text transform="matrix(0.998 0 0 1 11.8389 44.2002)" fill="#2E8ECD" font-family="'Traffolight'" font-size="10.2969" letter-spacing="4.008">INTERNET</text>
<g>
	<g id="Icons_1_">
		<g id="Rounded_1_" transform="translate(-577.000000, -3702.000000)">
			<g id="Notification_1_" transform="translate(100.000000, 3600.000000)">
				<g id="_x2D_Round-_x2F_-Notification-_x2F_-wifi_1_" transform="translate(476.000000, 98.000000)">
					<g>
						<path id="_xD83D__xDD39_-Icon-Color_1_" fill="#2E8ECD" d="M139.274,18.901c0.012,0.947,0.728,1.736,1.666,1.808
							c7.906,0.667,14.282,6.875,15.177,14.761c0.104,0.946,0.91,1.661,1.859,1.647c1.094-0.014,1.952-0.973,1.826-2.065
							c-1.088-9.621-8.854-17.186-18.511-18.034C140.203,16.914,139.258,17.789,139.274,18.901z M139.464,33.307l0.038,2.727
							c0.008,0.724,0.603,1.301,1.323,1.291l2.727-0.035c0.874-0.012,1.522-0.866,1.243-1.705c-0.571-1.709-1.945-3.049-3.679-3.583
							C140.299,31.772,139.452,32.432,139.464,33.307z M139.373,26.381c0.011,0.911,0.69,1.662,1.604,1.797
							c3.874,0.609,6.96,3.614,7.669,7.474c0.172,0.898,0.93,1.567,1.84,1.555h0.018c1.114-0.013,2.013-1.012,1.812-2.104
							c-0.954-5.49-5.362-9.786-10.889-10.605C140.32,24.336,139.356,25.25,139.373,26.381z"/>
					</g>
				</g>
			</g>
		</g>
	</g>
</g>
<path fill="none" stroke="#FFFFFF" stroke-miterlimit="10" d="M113.491,36.157v5.847c0,1.248,0.818,2.259,1.834,2.259h48.382
	c1.014,0,1.834-1.011,1.834-2.259V7.456c0-1.248-0.82-2.259-1.834-2.259h-48.382c-1.016,0-1.834,1.011-1.834,2.259v5.635"/>
</svg>
